<mxfile host="app.diagrams.net" modified="2024-03-29T05:02:46.074Z" agent="Mozilla/5.0 (Macintosh; Intel Mac OS X 10_15_7) AppleWebKit/537.36 (KHTML, like Gecko) Chrome/123.0.0.0 Safari/537.36" version="24.2.1" etag="7hLGIOyOLpDzHzImu9cv" type="github">
  <diagram name="ページ1" id="0zyd_K-1lZ-IRK_Wjjna">
    <mxGraphModel>
      <root>
        <mxCell id="0" />
        <mxCell id="1" parent="0" />
      </root>
    </mxGraphModel>
  </diagram>
</mxfile>
